# Blender 5.2.1 LTS
# www.blender.org
mtllib PencilBodyV1ByTempest.mtl
o PencilBodyV1ByTempest
o PencilBodyV1ByTempest.001
v 0.059072 0.146721 -0.081306
v 0.065313 0.187054 -0.089895
v 0.105678 0.187054 -0.034337
v 0.095581 0.146721 -0.031056
v 0.095581 0.146721 0.031056
v 0.105678 0.187054 0.034337
v 0.059072 0.146721 0.081306
v 0.065313 0.187054 0.089895
v 0.065313 0.348387 -0.089895
v 0.059072 0.388721 -0.081306
v 0.105678 0.348387 -0.034337
v 0.095581 0.388721 -0.031056
v 0.105678 0.348387 0.034337
v 0.095581 0.388721 0.031056
v 0.059072 0.388721 0.081306
v 0.065313 0.348387 0.089895
v 0.065313 0.267721 -0.089895
v 0.059072 0.308054 -0.081306
v 0.105678 0.267721 -0.034337
v 0.095581 0.308054 -0.031056
v 0.105678 0.267721 0.034337
v 0.095581 0.308054 0.031056
v 0.059072 0.308054 0.081306
v 0.065313 0.267721 0.089895
v 0.059072 0.227388 -0.081306
v 0.105678 0.267721 -0.034337
v 0.095581 0.227388 -0.031056
v 0.095581 0.227388 0.031056
v 0.065313 0.267721 -0.089895
v 0.105678 0.267721 0.034337
v 0.059072 0.227388 0.081306
v 0.065313 0.267721 0.089895
v 0.059072 0.308054 -0.081306
v 0.105678 0.348387 -0.034337
v 0.095581 0.308054 -0.031056
v 0.095581 0.308054 0.031056
v 0.065313 0.348387 -0.089895
v 0.105678 0.348387 0.034337
v 0.059072 0.308054 0.081306
v 0.065313 0.348387 0.089895
v 0.065313 0.187054 -0.089895
v 0.059072 0.227388 -0.081306
v 0.105678 0.187054 -0.034337
v 0.095581 0.227388 -0.031056
v 0.105678 0.187054 0.034337
v 0.095581 0.227388 0.031056
v 0.059072 0.227388 0.081306
v 0.065313 0.187054 0.089895
v 0.000000 0.388721 -0.100499
v 0.095581 0.388721 -0.031056
v 0.059072 0.388721 -0.081306
v 0.095581 0.388721 0.031056
v 0.000000 0.388721 0.100499
v 0.059072 0.388721 0.081306
v -0.095581 0.388721 -0.031056
v -0.059072 0.388721 -0.081306
v -0.095581 0.388721 0.031056
v -0.059072 0.388721 0.081306
v -0.059072 0.146721 0.081306
v -0.065313 0.187054 0.089895
v 0.000000 0.187054 0.111117
v 0.000000 0.146721 0.100499
v 0.059072 0.146721 0.081306
v 0.065313 0.187054 0.089895
v 0.059072 0.388721 0.081306
v 0.065313 0.348387 0.089895
v 0.000000 0.348387 0.111117
v 0.000000 0.388721 0.100499
v -0.059072 0.388721 0.081306
v -0.065313 0.348388 0.089895
v 0.059072 0.308054 0.081306
v 0.065313 0.267721 0.089895
v 0.000000 0.267721 0.111117
v 0.000000 0.308054 0.100499
v -0.059072 0.308054 0.081306
v -0.065313 0.267721 0.089895
v 0.059072 0.227388 0.081306
v 0.065313 0.267721 0.089895
v 0.000000 0.267721 0.111117
v 0.000000 0.227388 0.100499
v -0.059072 0.227388 0.081306
v -0.065313 0.267721 0.089895
v 0.059072 0.308054 0.081306
v 0.065313 0.348387 0.089895
v 0.000000 0.348387 0.111117
v 0.000000 0.308054 0.100499
v -0.059072 0.308054 0.081306
v -0.065313 0.348388 0.089895
v 0.059072 0.227388 0.081306
v 0.065313 0.187054 0.089895
v 0.000000 0.187054 0.111117
v 0.000000 0.227388 0.100499
v -0.059072 0.227388 0.081306
v -0.065313 0.187054 0.089895
v -0.059072 0.146721 -0.081306
v -0.105678 0.187055 -0.034337
v -0.065313 0.187055 -0.089895
v -0.095581 0.146721 -0.031056
v -0.105678 0.187055 0.034337
v -0.095581 0.146721 0.031056
v -0.059072 0.146721 0.081306
v -0.065313 0.187054 0.089895
v -0.059072 0.388721 -0.081306
v -0.065313 0.348388 -0.089895
v -0.105678 0.348388 -0.034337
v -0.095581 0.388721 -0.031056
v -0.095581 0.388721 0.031056
v -0.105678 0.348388 0.034337
v -0.059072 0.388721 0.081306
v -0.065313 0.348388 0.089895
v -0.059072 0.308054 -0.081306
v -0.065313 0.267721 -0.089895
v -0.105678 0.267721 -0.034337
v -0.095581 0.308054 -0.031056
v -0.095581 0.308054 0.031056
v -0.105678 0.267721 0.034337
v -0.059072 0.308054 0.081306
v -0.065313 0.267721 0.089895
v -0.059072 0.227388 -0.081306
v -0.065313 0.267721 -0.089895
v -0.105678 0.267721 -0.034337
v -0.059072 0.227388 0.081306
v -0.095581 0.227388 -0.031056
v -0.065313 0.267721 0.089895
v -0.105678 0.267721 0.034337
v -0.095581 0.227388 0.031056
v -0.059072 0.308054 -0.081306
v -0.065313 0.348388 -0.089895
v -0.105678 0.348388 -0.034337
v -0.059072 0.308054 0.081306
v -0.095581 0.308054 -0.031056
v -0.065313 0.348388 0.089895
v -0.105678 0.348388 0.034337
v -0.095581 0.308054 0.031056
v -0.059072 0.227388 -0.081306
v -0.065313 0.187055 -0.089895
v -0.105678 0.187055 -0.034337
v -0.095581 0.227388 -0.031056
v -0.095581 0.227388 0.031056
v -0.105678 0.187055 0.034337
v -0.059072 0.227388 0.081306
v -0.065313 0.187054 0.089895
v 0.000000 0.146721 -0.100499
v -0.095581 0.146721 -0.031056
v -0.059072 0.146721 -0.081306
v -0.095581 0.146721 0.031056
v 0.000000 0.146721 0.100499
v -0.059072 0.146721 0.081306
v 0.095581 0.146721 -0.031056
v 0.059072 0.146721 -0.081306
v 0.095581 0.146721 0.031056
v 0.059072 0.146721 0.081306
v -0.059072 0.146721 -0.081306
v -0.065313 0.187055 -0.089895
v 0.000000 0.187054 -0.111117
v 0.000000 0.146721 -0.100499
v 0.059072 0.146721 -0.081306
v 0.065313 0.187054 -0.089895
v 0.065313 0.348387 -0.089895
v 0.059072 0.388721 -0.081306
v 0.000000 0.348388 -0.111117
v 0.000000 0.388721 -0.100499
v -0.059072 0.388721 -0.081306
v -0.065313 0.348388 -0.089895
v 0.065313 0.267721 -0.089895
v 0.059072 0.308054 -0.081306
v 0.000000 0.267721 -0.111117
v 0.000000 0.308054 -0.100499
v -0.059072 0.308054 -0.081306
v -0.065313 0.267721 -0.089895
v 0.059072 0.227388 -0.081306
v 0.065313 0.267721 -0.089895
v 0.000000 0.267721 -0.111117
v 0.000000 0.227388 -0.100499
v -0.059072 0.227388 -0.081306
v -0.065313 0.267721 -0.089895
v 0.059072 0.308054 -0.081306
v 0.065313 0.348387 -0.089895
v 0.000000 0.348388 -0.111117
v 0.000000 0.308054 -0.100499
v -0.059072 0.308054 -0.081306
v -0.065313 0.348388 -0.089895
v 0.065313 0.187054 -0.089895
v 0.059072 0.227388 -0.081306
v 0.000000 0.187054 -0.111117
v 0.000000 0.227388 -0.100499
v -0.059072 0.227388 -0.081306
v -0.065313 0.187055 -0.089895
v 0.016081 2.948901 0.027820
v 0.024482 2.961562 0.010864
v -0.001585 3.071561 0.002393
v 0.027652 2.948901 -0.007792
v 0.014526 2.961562 -0.019780
v 0.016081 2.948901 0.027820
v -0.001585 3.071561 0.002393
v -0.001585 2.961562 0.029803
v -0.021364 2.948901 0.027820
v -0.001585 3.071561 0.002393
v -0.021364 2.948901 0.027820
v -0.027652 2.961562 0.010864
v -0.017696 2.961562 -0.019780
v -0.027652 2.961562 -0.006076
v -0.001585 3.071561 0.002393
v 0.014526 2.961562 -0.019780
v -0.002642 2.948901 -0.029802
v -0.017696 2.961562 -0.019780
v 0.053702 2.708179 -0.073914
v 0.016111 2.961179 -0.022174
v 0.086891 2.740283 -0.028233
v 0.029237 2.948518 -0.010186
v 0.086891 2.708179 0.028233
v 0.017666 2.948518 0.025426
v 0.053702 2.758989 0.073914
v 0.026067 2.961179 0.008470
v 0.029237 2.948518 -0.010186
v 0.086891 2.740283 -0.028233
v 0.000000 2.708179 0.091363
v 0.000000 2.961179 0.027409
v -0.053702 2.758989 0.073914
v -0.019779 2.948518 0.025426
v 0.017666 2.948518 0.025426
v 0.053702 2.758989 0.073914
v -0.086891 2.758989 -0.028233
v -0.016111 2.961179 -0.022174
v -0.026067 2.961179 -0.008470
v -0.086891 2.708179 0.028233
v -0.026067 2.961179 0.008470
v -0.086891 2.758989 -0.028233
v -0.026067 2.961179 -0.008470
v -0.019779 2.948518 0.025426
v -0.053702 2.758989 0.073914
v -0.086891 2.758989 -0.028233
v -0.016111 2.961179 -0.022174
v -0.053702 2.708179 -0.073914
v 0.000000 2.758989 -0.091363
v -0.001057 2.948518 -0.032196
v 0.053702 2.708179 -0.073914
v 0.016111 2.961179 -0.022174
v 0.000000 2.758989 -0.091363
v -0.001057 2.948518 -0.032196
v 0.053702 2.713634 -0.073835
v 0.053702 0.157884 -0.073835
v 0.086891 0.157884 -0.028154
v 0.086891 2.745744 -0.028154
v 0.086891 0.157884 -0.028154
v 0.086891 2.745744 -0.028154
v 0.086891 2.713634 0.028312
v 0.086891 0.157884 0.028312
v 0.053702 0.157884 0.073993
v 0.053702 2.764444 0.073993
v -0.053702 0.157884 0.073993
v 0.000000 2.713634 0.091442
v -0.053702 2.764444 0.073993
v 0.000000 0.157884 0.091442
v 0.053702 0.157884 0.073993
v 0.053702 2.764444 0.073993
v -0.086891 2.713634 0.028312
v -0.086891 0.157884 0.028312
v -0.053702 0.157884 0.073993
v -0.053702 2.764444 0.073993
v -0.086891 0.157884 -0.028154
v -0.086891 2.764444 -0.028154
v -0.053702 2.713634 -0.073835
v -0.053702 0.157884 -0.073835
v -0.086891 0.157884 -0.028154
v -0.086891 2.764444 -0.028154
v -0.053702 2.713634 -0.073835
v -0.053702 0.157884 -0.073835
v 0.000000 0.157884 -0.091284
v 0.000000 2.764444 -0.091284
v 0.000000 0.157884 -0.091284
v 0.000000 2.764444 -0.091284
v 0.053702 2.713634 -0.073835
v 0.053702 0.157884 -0.073835
v 0.049143 -0.004218 0.067639
v 0.053165 0.155271 0.073175
v 0.049143 -0.004218 -0.067639
v 0.053165 0.155271 -0.073175
v 0.058481 0.014635 -0.080493
v 0.058481 0.135503 -0.080493
v 0.094625 0.135503 -0.030745
v 0.094625 0.014635 -0.030745
v 0.079515 -0.004218 -0.025836
v 0.086022 0.155271 -0.027950
v 0.094625 0.014635 0.030745
v 0.079515 -0.004218 0.025836
v 0.094625 0.135503 0.030745
v 0.086022 0.155271 0.027950
v 0.058481 0.014635 0.080493
v 0.058481 0.135503 0.080493
v -0.049143 -0.004218 0.067639
v 0.000000 -0.004218 0.083607
v 0.000000 0.014635 0.099494
v 0.049143 -0.004218 0.067639
v -0.058481 0.014635 0.080493
v 0.000000 0.135503 0.099494
v -0.058481 0.135503 0.080493
v -0.053165 0.155271 0.073175
v 0.000000 0.155271 0.090449
v 0.053165 0.155271 0.073175
v 0.058481 0.014635 0.080493
v 0.058481 0.135503 0.080493
v -0.049143 -0.004218 0.067639
v -0.058481 0.014635 0.080493
v -0.094625 0.014635 0.030745
v -0.079514 -0.004218 0.025836
v -0.094625 0.014635 -0.030745
v -0.079514 -0.004218 -0.025836
v -0.058481 0.135503 0.080493
v -0.049143 -0.004218 -0.067639
v -0.094625 0.135503 0.030745
v -0.053165 0.155271 0.073175
v -0.086023 0.155271 0.027950
v -0.094625 0.135503 -0.030745
v -0.086023 0.155271 -0.027950
v -0.053165 0.155271 -0.073175
v -0.058481 0.014635 -0.080493
v -0.058481 0.135503 -0.080493
v 0.049143 -0.004218 -0.067639
v -0.049143 -0.004218 -0.067639
v 0.000000 -0.004218 -0.083607
v -0.079514 -0.004218 -0.025836
v -0.079514 -0.004218 0.025836
v 0.049143 -0.004218 0.067639
v -0.049143 -0.004218 0.067639
v 0.000000 -0.004218 0.083607
v 0.079515 -0.004218 0.025836
v 0.079515 -0.004218 -0.025836
v -0.049143 -0.004218 -0.067639
v -0.053165 0.155271 -0.073175
v -0.058481 0.014635 -0.080493
v -0.058481 0.135503 -0.080493
v 0.000000 0.014635 -0.099494
v 0.000000 -0.004218 -0.083607
v 0.000000 0.135503 -0.099494
v 0.000000 0.155271 -0.090449
v 0.049143 -0.004218 -0.067639
v 0.053165 0.155271 -0.073175
v 0.058481 0.014635 -0.080493
v 0.058481 0.135503 -0.080493
vn 0.9204 -0.2518 -0.2990
vn 0.5691 -0.2529 -0.7824
vn 0.9205 -0.2517 -0.2990
vn 0.9205 -0.2518 0.2990
vn 0.9204 -0.2518 0.2990
vn 0.5691 -0.2529 0.7824
vn 0.5691 0.2529 -0.7824
vn 0.9205 0.2518 -0.2990
vn 0.9204 0.2518 -0.2990
vn 0.9205 0.2518 0.2990
vn 0.5691 0.2529 0.7824
vn 0.9205 0.2517 0.2990
vn -0.0000 1.0000 -0.0000
vn -0.5690 -0.2529 0.7825
vn -0.0000 -0.2518 0.9678
vn 0.5690 -0.2529 0.7825
vn -0.0000 0.2518 0.9678
vn 0.5690 0.2529 0.7825
vn -0.5690 0.2529 0.7825
vn -0.0000 0.2519 0.9678
vn -0.0000 -0.2519 0.9678
vn -0.5691 -0.2529 -0.7824
vn -0.9205 -0.2518 -0.2990
vn -0.9204 -0.2518 -0.2990
vn -0.9205 -0.2517 0.2990
vn -0.9205 -0.2518 0.2990
vn -0.5691 -0.2529 0.7824
vn -0.9204 0.2518 -0.2990
vn -0.5691 0.2529 -0.7824
vn -0.9205 0.2517 -0.2990
vn -0.9204 0.2518 0.2990
vn -0.5691 0.2529 0.7824
vn -0.9205 0.2518 0.2990
vn -0.0000 -1.0000 -0.0000
vn -0.0000 -0.2518 -0.9678
vn -0.5690 -0.2529 -0.7825
vn 0.5690 -0.2529 -0.7825
vn -0.0000 0.2518 -0.9678
vn 0.5690 0.2529 -0.7825
vn -0.5690 0.2529 -0.7825
vn -0.0000 0.2519 -0.9678
vn -0.0000 -0.2519 -0.9678
vn 0.5613 0.2450 0.7905
vn 0.9223 0.2443 0.2995
vn 0.0158 0.9998 0.0078
vn 0.9201 0.2438 -0.3067
vn 0.5808 0.2433 -0.7769
vn 0.0158 0.2444 0.9696
vn 0.5612 0.2451 0.7906
vn 0.0158 0.9998 0.0079
vn -0.5831 0.2522 0.7723
vn -0.9297 0.2442 0.2757
vn -0.5832 0.2522 0.7722
vn 0.0157 0.9998 0.0079
vn -0.9223 0.2443 -0.2995
vn -0.5895 0.2436 -0.7701
vn 0.5806 0.2433 -0.7770
vn -0.0157 0.2518 -0.9677
vn -0.5894 0.2436 -0.7702
vn 0.5970 0.2513 -0.7619
vn 0.5970 0.2513 -0.7618
vn 0.7165 0.2441 -0.6535
vn 0.7165 0.2441 -0.6534
vn 0.9299 0.2522 0.2679
vn 0.8685 0.2527 0.4265
vn 0.8685 0.2527 0.4264
vn 0.9641 0.2450 0.1027
vn -0.0000 0.2591 0.9658
vn -0.1259 0.2517 0.9596
vn 0.1259 0.2517 0.9596
vn -0.5832 0.2522 -0.7722
vn -0.6685 0.2517 -0.6998
vn -0.9226 0.2523 0.2918
vn -0.9247 0.2529 0.2845
vn -0.9522 0.2518 0.1732
vn -0.9522 0.2519 0.1730
vn -0.8808 0.2517 0.4011
vn -0.6684 0.2517 -0.6999
vn -0.5831 0.2522 -0.7723
vn -0.5744 0.2517 -0.7789
vn -0.4733 0.2524 -0.8440
vn -0.4732 0.2524 -0.8440
vn 0.4640 0.2517 -0.8493
vn 0.5969 0.2514 -0.7620
vn 0.5969 0.2513 -0.7619
vn 0.4639 0.2517 -0.8494
vn 0.5835 -0.0000 -0.8121
vn 0.8084 -0.0000 -0.5887
vn 0.5887 -0.0000 -0.8084
vn 0.8083 -0.0000 -0.5887
vn 1.0000 -0.0000 -0.0000
vn 0.9495 -0.0000 0.3139
vn 0.9518 -0.0000 0.3068
vn 0.8084 -0.0000 0.5887
vn -0.3068 -0.0000 0.9518
vn -0.0000 -0.0000 1.0000
vn 0.3068 -0.0000 0.9518
vn -0.9518 -0.0000 0.3067
vn -0.9518 -0.0000 0.3068
vn -0.8084 -0.0000 0.5887
vn -1.0000 -0.0000 -0.0000
vn -0.5887 -0.0000 -0.8084
vn -0.8084 -0.0000 -0.5887
vn -0.5885 -0.0000 -0.8085
vn -0.3068 -0.0000 -0.9518
vn 0.3068 -0.0000 -0.9518
vn 0.5834 -0.0000 -0.8122
vn 0.5885 -0.0000 -0.8085
vn 0.9486 0.0712 -0.3083
vn 0.5858 0.0713 -0.8073
vn 0.5363 0.4179 -0.7333
vn 0.9481 -0.0791 -0.3081
vn 0.4477 -0.6440 -0.6204
vn 0.5854 -0.0792 -0.8068
vn 0.7253 -0.6465 -0.2365
vn 0.8641 0.4163 -0.2827
vn 0.9480 -0.0791 0.3081
vn 0.7253 -0.6465 0.2365
vn 0.4477 -0.6440 0.6204
vn 0.9486 0.0712 0.3083
vn 0.8642 0.4163 0.2827
vn 0.5363 0.4179 0.7333
vn 0.5854 -0.0792 0.8068
vn 0.5858 0.0713 0.8073
vn -0.4476 -0.6440 0.6205
vn -0.0000 -0.6456 0.7637
vn -0.0000 -0.0786 0.9969
vn 0.4476 -0.6440 0.6205
vn -0.5853 -0.0792 0.8069
vn -0.0000 0.0708 0.9975
vn -0.5819 0.0708 0.8102
vn -0.5362 0.4179 0.7334
vn -0.0000 0.4155 0.9096
vn 0.5362 0.4179 0.7334
vn 0.5853 -0.0791 0.8069
vn 0.5856 0.0713 0.8074
vn -0.9481 -0.0791 0.3081
vn -0.4477 -0.6440 0.6204
vn -0.5854 -0.0792 0.8068
vn -0.7254 -0.6464 0.2365
vn -0.9481 -0.0791 -0.3081
vn -0.7253 -0.6465 -0.2365
vn -0.5821 0.0708 0.8100
vn -0.4477 -0.6440 -0.6204
vn -0.9486 0.0712 0.3083
vn -0.5363 0.4179 0.7333
vn -0.8641 0.4163 0.2828
vn -0.9486 0.0712 -0.3083
vn -0.8641 0.4163 -0.2827
vn -0.5363 0.4179 -0.7333
vn -0.5854 -0.0792 -0.8068
vn -0.5821 0.0708 -0.8101
vn -0.0000 -0.0786 -0.9969
vn -0.4476 -0.6440 -0.6205
vn -0.5853 -0.0791 -0.8069
vn -0.5819 0.0708 -0.8101
vn -0.0000 -0.6456 -0.7637
vn -0.5362 0.4179 -0.7334
vn -0.0000 0.0708 -0.9975
vn -0.0000 0.4154 -0.9096
vn 0.4476 -0.6440 -0.6205
vn 0.5362 0.4179 -0.7334
vn 0.5853 -0.0792 -0.8069
vn 0.5856 0.0713 -0.8074
vt 60.004299 -57.010101
vt 60.010201 -57.015099
vt 60.011200 -57.010101
vt 60.003899 -57.015099
vt 59.996101 -57.015099
vt 59.995701 -57.010101
vt 59.989799 -57.015099
vt 59.988800 -57.010101
vt 60.011200 -56.989899
vt 60.010201 -56.984901
vt 60.004299 -56.989899
vt 60.003899 -56.984901
vt 59.995701 -56.989899
vt 59.996101 -56.984901
vt 59.989799 -56.984901
vt 59.988800 -56.989899
vt 60.011200 -57.000000
vt 60.010201 -56.994999
vt 60.004299 -57.000000
vt 60.003899 -56.994999
vt 59.995701 -57.000000
vt 59.996101 -56.994999
vt 59.989799 -56.994999
vt 59.988800 -57.000000
vt 60.010201 -57.005001
vt 60.003899 -57.005001
vt 59.996101 -57.005001
vt 59.989799 -57.005001
vt 60.000000 -57.012600
vt 59.988098 -57.003899
vt 59.992599 -57.010201
vt 59.988098 -56.996101
vt 60.000000 -56.987400
vt 59.992599 -56.989799
vt 60.011902 -57.003899
vt 60.007401 -57.010201
vt 60.011902 -56.996101
vt 60.007401 -56.989799
vt 59.992599 -57.015099
vt 60.000000 -57.010101
vt 59.991798 -57.010101
vt 60.000000 -57.015099
vt 60.007401 -57.015099
vt 60.008202 -57.010101
vt 60.000000 -56.989899
vt 60.008202 -56.989899
vt 60.007401 -56.984901
vt 60.000000 -56.984901
vt 59.992599 -56.984901
vt 59.991798 -56.989899
vt 60.000000 -57.000000
vt 60.008202 -57.000000
vt 60.007401 -56.994999
vt 60.000000 -56.994999
vt 59.992599 -56.994999
vt 59.991798 -57.000000
vt 60.007401 -57.005001
vt 60.000000 -57.005001
vt 59.992599 -57.005001
vt 57.996498 -13.007700
vt 57.998600 -13.006100
vt 57.999699 -12.992300
vt 58.000999 -13.007700
vt 58.002499 -13.006100
vt 57.999802 -13.006100
vt 58.001999 -13.007700
vt 57.999802 -12.992300
vt 57.997299 -13.007700
vt 58.001400 -13.006100
vt 58.003502 -13.007700
vt 58.000301 -12.992300
vt 57.999199 -13.006100
vt 57.997501 -13.006100
vt 57.998199 -13.006100
vt 58.000301 -13.007700
vt 58.000198 -12.992300
vt 58.002201 -13.006100
vt 50.009201 -25.015800
vt 50.002800 -24.984200
vt 50.003502 -25.011801
vt 50.001301 -24.985800
vt 49.996498 -25.015800
vt 49.996799 -24.985800
vt 49.990799 -25.009501
vt 49.998901 -24.984200
vt 50.000000 -25.015800
vt 50.000000 -24.984200
vt 49.993301 -25.009501
vt 49.997501 -24.985800
vt 50.002201 -24.985800
vt 50.006699 -25.009501
vt 49.997200 -24.984200
vt 49.996498 -25.009501
vt 50.003502 -25.015800
vt 50.001099 -24.984200
vt 50.003201 -24.985800
vt 50.009201 -25.009501
vt 50.010899 -25.009501
vt 50.001999 -24.984200
vt 50.006699 -25.015800
vt 50.000000 -25.009501
vt 50.000099 -24.985800
vt 49.998001 -24.984200
vt 49.993301 -25.015800
vt 30.009199 -18.843399
vt 30.003500 -19.162901
vt 30.009199 -19.162901
vt 30.003500 -18.839399
vt 29.996500 -18.843399
vt 29.996500 -19.162901
vt 29.990801 -19.162901
vt 29.990801 -18.837099
vt 29.993299 -19.162901
vt 30.000000 -18.843399
vt 29.993299 -18.837099
vt 30.000000 -19.162901
vt 30.006701 -19.162901
vt 30.006701 -18.837099
vt 30.003500 -18.843399
vt 30.009199 -18.837099
vt 29.996500 -18.837099
vt 29.990801 -18.843399
vt 30.006701 -18.843399
vt 30.000000 -18.837099
vt 29.993299 -18.843399
vt 62.003799 -8.992500
vt 62.010101 -8.992500
vt 62.009102 -8.990030
vt 62.003799 -9.007610
vt 62.008499 -9.009970
vt 62.010101 -9.007610
vt 62.003201 -9.009970
vt 62.003502 -8.990030
vt 61.996201 -9.007610
vt 61.996799 -9.009970
vt 61.991501 -9.009970
vt 61.996201 -8.992500
vt 61.996498 -8.990030
vt 61.990898 -8.990030
vt 61.989899 -9.007610
vt 61.989899 -8.992500
vt 61.993900 -9.009970
vt 62.000000 -9.009970
vt 62.000000 -9.007610
vt 62.006100 -9.009970
vt 61.992699 -9.007610
vt 62.000000 -8.992500
vt 61.992699 -8.992500
vt 61.993401 -8.990030
vt 62.000000 -8.990030
vt 62.006599 -8.990030
vt 62.007301 -9.007610
vt 62.007301 -8.992500
vt 62.006100 -9.008460
vt 61.993900 -9.008460
vt 62.000000 -9.010450
vt 61.990101 -9.003230
vt 61.990101 -8.996770
vt 62.006100 -8.991540
vt 61.993900 -8.991540
vt 62.000000 -8.989550
vt 62.009899 -8.996770
vt 62.009899 -9.003230
s 1
usemtl Meshpart1Mtl.005
f 3/1/1 1/2/2 2/3/2
f 1/2/2 3/1/1 4/4/3
f 4/4/3 3/1/1 5/5/4
f 3/1/1 6/6/5 5/5/4
f 5/5/4 6/6/5 7/7/6
f 6/6/5 8/8/6 7/7/6
f 9/9/7 10/10/7 11/11/8
f 10/10/7 12/12/9 11/11/8
f 11/11/8 12/12/9 13/13/10
f 12/12/9 14/14/10 13/13/10
f 15/15/11 13/13/10 14/14/10
f 13/13/10 15/15/11 16/16/11
f 17/17/7 18/18/7 19/19/9
f 18/18/7 20/20/8 19/19/9
f 19/19/9 20/20/8 21/21/12
f 20/20/8 22/22/12 21/21/12
f 23/23/11 21/21/12 22/22/12
f 21/21/12 23/23/11 24/24/11
f 25/25/2 26/19/3 27/26/3
f 27/26/3 26/19/3 28/27/4
f 26/19/3 25/25/2 29/17/2
f 26/19/3 30/21/5 28/27/4
f 28/27/4 30/21/5 31/28/6
f 30/21/5 32/24/6 31/28/6
f 33/18/2 34/11/3 35/20/3
f 35/20/3 34/11/3 36/22/4
f 34/11/3 33/18/2 37/9/2
f 34/11/3 38/13/5 36/22/4
f 36/22/4 38/13/5 39/23/6
f 38/13/5 40/16/6 39/23/6
f 41/3/7 42/25/7 43/1/9
f 42/25/7 44/26/9 43/1/9
f 43/1/9 44/26/9 45/6/10
f 44/26/9 46/27/10 45/6/10
f 47/28/11 45/6/10 46/27/10
f 45/6/10 47/28/11 48/8/11
f 49/29/13 50/30/13 51/31/13
f 50/30/13 49/29/13 52/32/13
f 53/33/13 52/32/13 49/29/13
f 52/32/13 53/33/13 54/34/13
f 49/29/13 55/35/13 53/33/13
f 55/35/13 49/29/13 56/36/13
f 53/33/13 55/35/13 57/37/13
f 53/33/13 57/37/13 58/38/13
f 59/39/14 61/40/15 60/41/14
f 59/39/14 62/42/15 61/40/15
f 63/43/16 61/40/15 62/42/15
f 61/40/15 63/43/16 64/44/16
f 67/45/17 66/46/18 65/47/18
f 67/45/17 65/47/18 68/48/17
f 69/49/19 67/45/17 68/48/17
f 67/45/17 69/49/19 70/50/19
f 73/51/17 72/52/18 71/53/18
f 73/51/17 71/53/18 74/54/20
f 75/55/19 73/51/17 74/54/20
f 73/51/17 75/55/19 76/56/19
f 79/51/15 77/57/16 78/52/16
f 77/57/16 79/51/15 80/58/21
f 81/59/14 80/58/21 79/51/15
f 81/59/14 79/51/15 82/56/14
f 85/45/15 83/53/16 84/46/16
f 83/53/16 85/45/15 86/54/21
f 87/55/14 86/54/21 85/45/15
f 87/55/14 85/45/15 88/50/14
f 91/40/17 90/44/18 89/57/18
f 91/40/17 89/57/18 92/58/17
f 93/59/19 91/40/17 92/58/17
f 91/40/17 93/59/19 94/41/19
f 95/7/22 96/6/23 97/8/22
f 96/6/23 95/7/22 98/5/24
f 98/5/24 99/1/25 96/6/23
f 99/1/25 98/5/24 100/4/26
f 101/2/27 99/1/25 100/4/26
f 99/1/25 101/2/27 102/3/27
f 105/13/28 103/15/29 104/16/29
f 103/15/29 105/13/28 106/14/30
f 105/13/28 107/12/31 106/14/30
f 107/12/31 105/13/28 108/11/31
f 108/11/31 109/10/32 107/12/31
f 109/10/32 108/11/31 110/9/32
f 113/21/30 111/23/29 112/24/29
f 111/23/29 113/21/30 114/22/30
f 113/21/30 115/20/33 114/22/30
f 115/20/33 113/21/30 116/19/31
f 116/19/31 117/18/32 115/20/33
f 117/18/32 116/19/31 118/17/32
f 119/28/22 121/21/24 120/24/22
f 121/21/24 119/28/22 123/27/23
f 123/27/23 125/19/25 121/21/24
f 125/19/25 122/25/27 124/17/27
f 125/19/25 123/27/23 126/26/25
f 122/25/27 125/19/25 126/26/25
f 127/23/22 129/13/24 128/16/22
f 129/13/24 127/23/22 131/22/24
f 131/22/24 133/11/26 129/13/24
f 133/11/26 130/18/27 132/9/27
f 133/11/26 131/22/24 134/20/26
f 130/18/27 133/11/26 134/20/26
f 137/6/30 135/28/29 136/8/29
f 135/28/29 137/6/30 138/27/30
f 137/6/30 139/26/33 138/27/30
f 139/26/33 137/6/30 140/1/31
f 140/1/31 141/25/32 139/26/33
f 141/25/32 140/1/31 142/3/32
f 143/29/34 144/30/34 145/31/34
f 144/30/34 143/29/34 146/32/34
f 147/33/34 146/32/34 143/29/34
f 146/32/34 147/33/34 148/34/34
f 143/29/34 149/35/34 147/33/34
f 149/35/34 143/29/34 150/36/34
f 147/33/34 149/35/34 151/37/34
f 147/33/34 151/37/34 152/38/34
f 155/40/35 153/43/36 154/44/36
f 153/43/36 155/40/35 156/42/35
f 155/40/35 157/39/37 156/42/35
f 157/39/37 155/40/35 158/41/37
f 161/45/38 160/49/39 159/50/39
f 160/49/39 161/45/38 162/48/38
f 162/48/38 161/45/38 163/47/40
f 163/47/40 161/45/38 164/46/40
f 167/51/38 166/55/39 165/56/39
f 166/55/39 167/51/38 168/54/41
f 168/54/41 167/51/38 169/53/40
f 169/53/40 167/51/38 170/52/40
f 171/59/37 173/51/35 172/56/37
f 173/51/35 171/59/37 174/58/42
f 175/57/36 173/51/35 174/58/42
f 173/51/35 175/57/36 176/52/36
f 177/55/37 179/45/35 178/50/37
f 179/45/35 177/55/37 180/54/35
f 181/53/36 179/45/35 180/54/35
f 179/45/35 181/53/36 182/46/36
f 185/40/38 184/59/39 183/41/39
f 184/59/39 185/40/38 186/58/38
f 186/58/38 185/40/38 187/57/40
f 187/57/40 185/40/38 188/44/40
usemtl Meshpart1Mtl.001
f 189/60/43 190/61/44 191/62/45
f 190/61/44 192/63/46 191/62/45
f 192/63/46 193/64/47 191/62/45
f 196/65/48 194/66/49 195/67/50
f 197/68/51 196/65/48 195/67/50
f 200/69/52 199/70/53 198/71/54
f 202/72/55 200/69/52 198/71/54
f 201/73/56 202/72/55 198/71/54
f 204/74/57 205/75/58 203/76/54
f 205/75/58 206/77/59 203/76/54
usemtl Meshpart1Mtl.002
f 207/78/60 208/79/61 209/80/62
f 209/80/62 208/79/61 210/81/63
f 211/82/64 212/83/65 213/84/66
f 212/83/65 211/82/64 214/85/64
f 211/82/64 215/81/67 214/85/64
f 215/81/67 211/82/64 216/80/67
f 217/86/68 218/87/68 219/88/69
f 219/88/69 218/87/68 220/89/69
f 218/87/68 217/86/68 221/90/70
f 221/90/70 217/86/68 222/91/70
f 224/92/71 223/93/72 225/85/72
f 226/94/73 227/95/74 228/93/75
f 229/85/76 228/93/75 227/95/74
f 227/95/74 226/94/73 230/96/77
f 230/96/77 226/94/73 231/97/77
f 232/98/78 233/99/79 234/100/80
f 235/101/81 234/100/80 233/99/79
f 236/102/82 235/101/81 233/99/79
f 239/101/83 238/103/84 237/104/85
f 238/103/84 239/101/83 240/102/86
usemtl Meshpart1Mtl.003
f 241/105/87 243/106/88 242/107/89
f 243/106/88 241/105/87 244/108/90
f 245/106/91 246/108/91 247/109/92
f 245/106/91 247/109/92 248/110/93
f 247/109/92 249/111/94 248/110/93
f 249/111/94 247/109/92 250/112/94
f 251/113/95 252/114/96 253/115/95
f 252/114/96 251/113/95 254/116/96
f 252/114/96 254/116/96 255/117/97
f 255/117/97 256/118/97 252/114/96
f 257/119/98 258/106/99 259/107/100
f 259/107/100 260/120/100 257/119/98
f 257/119/98 261/110/101 258/106/99
f 261/110/101 257/119/98 262/121/101
f 263/122/102 264/111/102 265/110/103
f 265/110/103 266/121/103 263/122/102
f 267/123/104 269/116/105 268/117/104
f 269/116/105 267/123/104 270/124/105
f 271/116/106 272/124/106 273/125/107
f 271/116/106 273/125/107 274/113/108
usemtl Meshpart1Mtl.004
f 281/126/109 280/127/110 278/128/111
f 282/129/112 277/130/113 279/131/114
f 279/131/114 280/127/110 282/129/112
f 281/126/109 282/129/112 280/127/110
f 277/130/113 282/129/112 283/132/115
f 278/128/111 284/133/116 281/126/109
f 285/134/117 283/132/115 282/129/112
f 282/129/112 281/126/109 285/134/117
f 283/132/115 285/134/117 286/135/118
f 275/136/119 286/135/118 285/134/117
f 287/137/120 281/126/109 284/133/116
f 287/137/120 285/134/117 281/126/109
f 284/133/116 288/138/121 287/137/120
f 276/139/122 287/137/120 288/138/121
f 285/134/117 289/140/123 275/136/119
f 285/134/117 287/137/120 289/140/123
f 287/137/120 276/139/122 290/141/124
f 290/141/124 289/140/123 287/137/120
f 291/142/125 292/143/126 293/144/127
f 294/145/128 293/144/127 292/143/126
f 293/144/127 295/146/129 291/142/125
f 293/144/127 296/147/130 295/146/129
f 295/146/129 296/147/130 297/148/131
f 296/147/130 298/149/132 297/148/131
f 298/149/132 296/147/130 299/150/133
f 296/147/130 300/151/134 299/150/133
f 293/144/127 294/145/128 301/152/135
f 301/152/135 302/153/136 293/144/127
f 296/147/130 302/153/136 300/151/134
f 293/144/127 302/153/136 296/147/130
f 305/129/137 303/130/138 304/131/139
f 303/130/138 305/129/137 306/132/140
f 307/134/141 306/132/140 305/129/137
f 306/132/140 307/134/141 308/135/142
f 309/127/143 305/129/137 304/131/139
f 307/134/141 310/136/144 308/135/142
f 311/126/145 307/134/141 305/129/137
f 305/129/137 309/127/143 311/126/145
f 311/126/145 309/127/143 312/128/146
f 311/126/145 312/128/146 313/133/147
f 313/133/147 314/137/148 311/126/145
f 307/134/141 311/126/145 314/137/148
f 314/137/148 313/133/147 315/138/149
f 316/139/150 314/137/148 315/138/149
f 314/137/148 317/140/151 307/134/141
f 310/136/144 307/134/141 317/140/151
f 314/137/148 316/139/150 318/141/152
f 317/140/151 314/137/148 318/141/152
f 319/154/34 320/155/34 321/156/34
f 320/155/34 319/154/34 322/157/34
f 319/154/34 323/158/34 322/157/34
f 319/154/34 324/159/34 323/158/34
f 324/159/34 325/160/34 323/158/34
f 325/160/34 324/159/34 326/161/34
f 324/159/34 319/154/34 327/162/34
f 327/162/34 319/154/34 328/163/34
f 333/144/153 329/145/154 331/152/155
f 332/153/156 333/144/153 331/152/155
f 329/145/154 333/144/153 334/143/157
f 330/151/158 335/147/159 332/153/156
f 333/144/153 332/153/156 335/147/159
f 330/151/158 336/150/160 335/147/159
f 333/144/153 337/142/161 334/143/157
f 338/149/162 335/147/159 336/150/160
f 333/144/153 339/146/163 337/142/161
f 335/147/159 339/146/163 333/144/153
f 335/147/159 338/149/162 340/148/164
f 339/146/163 335/147/159 340/148/164
